<svg width="62" height="62" viewBox="0 0 62 62" fill="none" xmlns="http://www.w3.org/2000/svg">
<g filter="url(#filter0_d_1_305)">
<circle cx="31.0007" cy="27" r="17" fill="white"/>
</g>
<g clip-path="url(#clip0_1_305)">
<path d="M34.481 21H28.519C26.5786 21 25 22.5786 25 24.519V30.4811C25 32.4214 26.5786 34 28.519 34H34.4811C36.4214 34 38 32.4214 38 30.4811V24.519C38 22.5786 36.4214 21 34.481 21V21ZM37.2379 30.4811C37.2379 32.0012 36.0012 33.2379 34.481 33.2379H28.519C26.9988 33.2379 25.7621 32.0012 25.7621 30.4811V24.519C25.7621 22.9988 26.9988 21.7621 28.519 21.7621H34.4811C36.0012 21.7621 37.2379 22.9988 37.2379 24.519V30.4811Z" fill="black"/>
<path d="M31.4999 23.9453C29.5399 23.9453 27.9453 25.5399 27.9453 27.4999C27.9453 29.4599 29.5399 31.0545 31.4999 31.0545C33.4599 31.0545 35.0545 29.4599 35.0545 27.4999C35.0545 25.5399 33.4599 23.9453 31.4999 23.9453ZM31.4999 30.2924C29.9602 30.2924 28.7074 29.0397 28.7074 27.4999C28.7074 25.9602 29.9602 24.7074 31.4999 24.7074C33.0397 24.7074 34.2924 25.9602 34.2924 27.4999C34.2924 29.0397 33.0397 30.2924 31.4999 30.2924Z" fill="black"/>
<path d="M35.1394 22.6831C34.5602 22.6831 34.0891 23.1543 34.0891 23.7334C34.0891 24.3127 34.5602 24.7839 35.1394 24.7839C35.7187 24.7839 36.1899 24.3127 36.1899 23.7334C36.1899 23.1542 35.7187 22.6831 35.1394 22.6831ZM35.1394 24.0217C34.9806 24.0217 34.8512 23.8923 34.8512 23.7334C34.8512 23.5745 34.9806 23.4452 35.1394 23.4452C35.2984 23.4452 35.4278 23.5745 35.4278 23.7334C35.4278 23.8923 35.2984 24.0217 35.1394 24.0217Z" fill="black"/>
</g>
<defs>
<filter id="filter0_d_1_305" x="0.000732422" y="0" width="62" height="62" filterUnits="userSpaceOnUse" color-interpolation-filters="sRGB">
<feFlood flood-opacity="0" result="BackgroundImageFix"/>
<feColorMatrix in="SourceAlpha" type="matrix" values="0 0 0 0 0 0 0 0 0 0 0 0 0 0 0 0 0 0 127 0" result="hardAlpha"/>
<feOffset dy="4"/>
<feGaussianBlur stdDeviation="7"/>
<feColorMatrix type="matrix" values="0 0 0 0 0 0 0 0 0 0 0 0 0 0 0 0 0 0 0.15 0"/>
<feBlend mode="normal" in2="BackgroundImageFix" result="effect1_dropShadow_1_305"/>
<feBlend mode="normal" in="SourceGraphic" in2="effect1_dropShadow_1_305" result="shape"/>
</filter>
<clipPath id="clip0_1_305">
<rect width="13" height="13" fill="white" transform="translate(25 21)"/>
</clipPath>
</defs>
</svg>
