<svg width="62" height="62" viewBox="0 0 62 62" fill="none" xmlns="http://www.w3.org/2000/svg">
<g filter="url(#filter0_d_1_319)">
<circle cx="31.0007" cy="27" r="17" fill="white"/>
</g>
<g clip-path="url(#clip0_1_319)">
<path d="M36.9973 33V32.9996H37.0001V28.9653C37.0001 26.9917 36.5752 25.4714 34.268 25.4714C33.1588 25.4714 32.4145 26.0801 32.1106 26.6571H32.0785V25.6557H29.8909V32.9996H32.1688V29.3631C32.1688 28.4057 32.3503 27.4799 33.536 27.4799C34.7043 27.4799 34.7217 28.5725 34.7217 29.4246V33H36.9973Z" fill="black"/>
<path d="M26.1814 25.656H28.4621V32.9999H26.1814V25.656Z" fill="black"/>
<path d="M27.3209 22C26.5917 22 26 22.5917 26 23.3209C26 24.0501 26.5917 24.6542 27.3209 24.6542C28.0501 24.6542 28.6418 24.0501 28.6418 23.3209C28.6414 22.5917 28.0497 22 27.3209 22V22Z" fill="black"/>
</g>
<defs>
<filter id="filter0_d_1_319" x="0.000732422" y="0" width="62" height="62" filterUnits="userSpaceOnUse" color-interpolation-filters="sRGB">
<feFlood flood-opacity="0" result="BackgroundImageFix"/>
<feColorMatrix in="SourceAlpha" type="matrix" values="0 0 0 0 0 0 0 0 0 0 0 0 0 0 0 0 0 0 127 0" result="hardAlpha"/>
<feOffset dy="4"/>
<feGaussianBlur stdDeviation="7"/>
<feColorMatrix type="matrix" values="0 0 0 0 0 0 0 0 0 0 0 0 0 0 0 0 0 0 0.15 0"/>
<feBlend mode="normal" in2="BackgroundImageFix" result="effect1_dropShadow_1_319"/>
<feBlend mode="normal" in="SourceGraphic" in2="effect1_dropShadow_1_319" result="shape"/>
</filter>
<clipPath id="clip0_1_319">
<rect width="11" height="11" fill="white" transform="translate(26 22)"/>
</clipPath>
</defs>
</svg>
