<svg width="62" height="62" viewBox="0 0 62 62" fill="none" xmlns="http://www.w3.org/2000/svg">
<g filter="url(#filter0_d_1_312)">
<circle cx="31.0007" cy="27" r="17" fill="white"/>
</g>
<g clip-path="url(#clip0_1_312)">
<path d="M37 23.2504C36.5166 23.4625 36.0014 23.6031 35.4644 23.6713C36.0169 23.3414 36.4386 22.8231 36.6368 22.1982C36.1217 22.5054 35.5529 22.7223 34.9468 22.8434C34.4577 22.3226 33.7606 22 33.0001 22C31.5246 22 30.3367 23.1976 30.3367 24.6658C30.3367 24.8771 30.3546 25.0802 30.3984 25.2736C28.1828 25.1655 26.2222 24.1036 24.9051 22.4859C24.6752 22.8848 24.5403 23.3414 24.5403 23.833C24.5403 24.756 25.0156 25.5742 25.7241 26.0479C25.2959 26.0398 24.8759 25.9154 24.52 25.7196C24.52 25.7278 24.52 25.7383 24.52 25.7489C24.52 27.044 25.4438 28.1198 26.6552 28.3676C26.4383 28.4269 26.2019 28.4553 25.9565 28.4553C25.7859 28.4553 25.6136 28.4456 25.4519 28.4098C25.7972 29.4653 26.7771 30.2412 27.9423 30.2664C27.0355 30.9757 25.8842 31.4031 24.6378 31.4031C24.4193 31.4031 24.2096 31.3933 24 31.3665C25.1806 32.1278 26.5797 32.5625 28.0885 32.5625C32.9928 32.5625 35.674 28.5 35.674 24.9786C35.674 24.8608 35.6699 24.7471 35.6643 24.6341C36.1932 24.2587 36.6376 23.7899 37 23.2504Z" fill="black"/>
</g>
<defs>
<filter id="filter0_d_1_312" x="0.000732422" y="0" width="62" height="62" filterUnits="userSpaceOnUse" color-interpolation-filters="sRGB">
<feFlood flood-opacity="0" result="BackgroundImageFix"/>
<feColorMatrix in="SourceAlpha" type="matrix" values="0 0 0 0 0 0 0 0 0 0 0 0 0 0 0 0 0 0 127 0" result="hardAlpha"/>
<feOffset dy="4"/>
<feGaussianBlur stdDeviation="7"/>
<feColorMatrix type="matrix" values="0 0 0 0 0 0 0 0 0 0 0 0 0 0 0 0 0 0 0.15 0"/>
<feBlend mode="normal" in2="BackgroundImageFix" result="effect1_dropShadow_1_312"/>
<feBlend mode="normal" in="SourceGraphic" in2="effect1_dropShadow_1_312" result="shape"/>
</filter>
<clipPath id="clip0_1_312">
<rect width="13" height="13" fill="white" transform="translate(24.0007 21)"/>
</clipPath>
</defs>
</svg>
